<svg width="133" height="36" viewBox="0 0 133 36" fill="none" xmlns="http://www.w3.org/2000/svg">
<path fill-rule="evenodd" clip-rule="evenodd" d="M0 18.1065C0 27.9411 8.05887 36 18.1065 36C27.9411 36 36 27.9411 36 18.1065C36 8.05887 27.9411 0 18.1065 0C8.05887 0 0 8.05887 0 18.1065ZM33.7263 18.1065C33.7263 26.6854 26.6854 33.7263 18.1065 33.7263C9.34353 33.7263 2.27368 26.714 2.27368 18.1065C2.27368 9.3146 9.3146 2.27368 18.1065 2.27368C26.714 2.27368 33.7263 9.34353 33.7263 18.1065Z" fill="white"/>
<path fill-rule="evenodd" clip-rule="evenodd" d="M16.4288 13.5917C16.7107 13.359 17.0649 13.2318 17.4305 13.2318C17.7922 13.2318 18.1429 13.3564 18.4235 13.5846L22.6335 17.0082C23.0074 17.3123 23.5156 17.3923 23.9648 17.218L25.9502 16.4474C26.1292 16.3779 26.3302 16.4036 26.4851 16.517C27.0788 16.9516 28.5751 18.0497 29.1289 18.482C30.4861 19.5416 31.486 20.25 31.486 20.25C31.486 20.25 31.4686 19.8601 31.486 19.4401C31.846 10.718 25.2324 4.39017 17.8022 4.50144C10.3803 4.61568 4.38132 10.5662 4.50178 18.8354C4.51309 19.5319 4.6193 20.25 4.6193 20.25L6.50953 18.8354L8.80622 17.1806C9.12242 16.9528 9.54513 16.9393 9.87525 17.1464L10.7991 17.7261C11.0088 17.8577 11.2793 17.8402 11.4703 17.6826L16.4288 13.5917Z" fill="white"/>
<path fill-rule="evenodd" clip-rule="evenodd" d="M16.6359 34.7904C18.8195 35.0437 20.6187 34.6644 21.2437 34.486C21.5288 34.4046 22.5941 34.144 22.8452 34.0596C23.6863 33.777 24.9699 33.1782 25.7013 32.7418C26.7957 32.0887 27.5685 31.4007 28.6388 30.4354C31.015 28.2924 32.625 24.3249 32.625 23.92C32.625 23.8287 28.2146 20.5068 26.9191 19.5329C26.7151 19.3796 26.4318 19.4032 26.253 19.5853C26.0843 19.7571 26.0583 20.0226 26.1911 20.2234C26.6343 20.894 27.5743 22.3246 27.6195 22.4617C27.792 22.9849 27.5465 23.2804 27.3009 23.1231C27.0553 22.9658 21.5646 19.2672 21.5646 19.2672L18.2802 16.9963C17.8686 16.7117 17.3068 17.0063 17.3068 17.5066C17.3068 17.5066 17.1957 19.1166 17.1957 20.1676C17.1957 20.5941 17.1518 21.1118 16.6359 21.246C16.3774 21.3132 15.7234 21.3527 15.7234 21.3527L10.1751 20.9334C9.7985 20.905 9.58735 21.358 9.85127 21.6281C9.85127 21.6281 17.1957 26.5849 17.1957 26.9884C17.1957 27.846 14.552 26.4718 12.4773 25.4639C9.95207 24.2372 7.1464 23.1341 6.44733 22.8633C6.34241 22.8227 6.22786 22.8316 6.13032 22.8877C5.52896 23.2335 3.35693 24.4869 3.37514 24.5407C4.08779 26.6437 5.97805 29.7235 8.84189 31.7745C9.98699 32.5946 11.3079 33.3606 12.5939 33.8365C14.0645 34.3806 15.6064 34.7904 16.6359 34.7904Z" fill="white"/>
<path d="M60.6758 26L58.7891 21.1719H51.2656L49.3672 26H47.0469L53.7852 9.48828H56.3281L62.9609 26H60.6758ZM55.0273 11.1758L54.9219 11.5039C54.7266 12.1523 54.4375 12.9844 54.0547 14L51.9453 19.4258H58.1211L56 13.9766C55.7812 13.4375 55.5625 12.8281 55.3438 12.1484L55.0273 11.1758ZM64.6719 26V16.2734C64.6719 15.3828 64.6484 14.3984 64.6016 13.3203H66.5938C66.6562 14.7578 66.6875 15.6211 66.6875 15.9102H66.7344C67.0703 14.8242 67.457 14.082 67.8945 13.6836C68.332 13.2852 68.9492 13.0859 69.7461 13.0859C70.0273 13.0859 70.3125 13.125 70.6016 13.2031V15.1367C70.3203 15.0586 69.9453 15.0195 69.4766 15.0195C68.6016 15.0195 67.9336 15.3984 67.4727 16.1562C67.0117 16.9062 66.7812 17.9844 66.7812 19.3906V26H64.6719ZM74.2344 20.1055C74.2344 21.5586 74.5352 22.6797 75.1367 23.4688C75.7383 24.2578 76.6172 24.6523 77.7734 24.6523C78.6875 24.6523 79.418 24.4688 79.9648 24.1016C80.5195 23.7344 80.8945 23.2695 81.0898 22.707L82.9414 23.2344C82.1836 25.2344 80.4609 26.2344 77.7734 26.2344C75.8984 26.2344 74.4688 25.6758 73.4844 24.5586C72.5078 23.4414 72.0195 21.7812 72.0195 19.5781C72.0195 17.4844 72.5078 15.8789 73.4844 14.7617C74.4688 13.6445 75.8711 13.0859 77.6914 13.0859C81.418 13.0859 83.2812 15.332 83.2812 19.8242V20.1055H74.2344ZM81.1016 18.4883C80.9844 17.1523 80.6445 16.1797 80.082 15.5703C79.5195 14.9531 78.7109 14.6445 77.6562 14.6445C76.6328 14.6445 75.8203 14.9883 75.2188 15.6758C74.625 16.3555 74.3047 17.293 74.2578 18.4883H81.1016ZM94.0273 26V17.9609C94.0273 17.125 93.9453 16.4766 93.7812 16.0156C93.6172 15.5547 93.3555 15.2227 92.9961 15.0195C92.6367 14.8164 92.1094 14.7148 91.4141 14.7148C90.3984 14.7148 89.5977 15.0625 89.0117 15.7578C88.4258 16.4531 88.1328 17.418 88.1328 18.6523V26H86.0234V16.0273C86.0234 14.5508 86 13.6484 85.9531 13.3203H87.9453C87.9531 13.3594 87.9609 13.4648 87.9688 13.6367C87.9766 13.8086 87.9844 14.0078 87.9922 14.2344C88.0078 14.4531 88.0234 14.8711 88.0391 15.4883H88.0742C88.5586 14.6133 89.1172 13.9961 89.75 13.6367C90.3906 13.2695 91.1836 13.0859 92.1289 13.0859C93.5195 13.0859 94.5352 13.4336 95.1758 14.1289C95.8242 14.8164 96.1484 15.957 96.1484 17.5508V26H94.0273ZM102.57 26.2344C101.297 26.2344 100.34 25.8984 99.6992 25.2266C99.0586 24.5547 98.7383 23.6328 98.7383 22.4609C98.7383 21.1484 99.168 20.1406 100.027 19.4375C100.895 18.7344 102.289 18.3594 104.211 18.3125L107.059 18.2656V17.5742C107.059 16.543 106.84 15.8047 106.402 15.3594C105.965 14.9141 105.277 14.6914 104.34 14.6914C103.395 14.6914 102.707 14.8516 102.277 15.1719C101.848 15.4922 101.59 16.0039 101.504 16.707L99.3008 16.5078C99.6602 14.2266 101.355 13.0859 104.387 13.0859C105.98 13.0859 107.18 13.4531 107.984 14.1875C108.789 14.9141 109.191 15.9688 109.191 17.3516V22.8125C109.191 23.4375 109.273 23.9102 109.438 24.2305C109.602 24.543 109.914 24.6992 110.375 24.6992C110.578 24.6992 110.809 24.6719 111.066 24.6172V25.9297C110.535 26.0547 109.992 26.1172 109.438 26.1172C108.656 26.1172 108.086 25.9141 107.727 25.5078C107.375 25.0938 107.176 24.4492 107.129 23.5742H107.059C106.52 24.543 105.891 25.2305 105.172 25.6367C104.461 26.0352 103.594 26.2344 102.57 26.2344ZM103.051 24.6523C103.824 24.6523 104.512 24.4766 105.113 24.125C105.715 23.7734 106.188 23.293 106.531 22.6836C106.883 22.0664 107.059 21.4336 107.059 20.7852V19.7422L104.75 19.7891C103.758 19.8047 103.004 19.9062 102.488 20.0938C101.98 20.2812 101.59 20.5703 101.316 20.9609C101.043 21.3516 100.906 21.8633 100.906 22.4961C100.906 23.1836 101.09 23.7148 101.457 24.0898C101.832 24.4648 102.363 24.6523 103.051 24.6523Z" fill="white"/>
</svg>
